<svg width="1280" height="4000" viewBox="0 0 1280 4000" fill="none" xmlns="http://www.w3.org/2000/svg">
<mask id="mask0_259_373" style="mask-type:alpha" maskUnits="userSpaceOnUse" x="0" y="1600" width="1280" height="800">
<rect y="1600" width="1280" height="800" fill="#D9D9D9"/>
</mask>
<g mask="url(#mask0_259_373)">
<g filter="url(#filter0_f_259_373)">
<path fill-rule="evenodd" clip-rule="evenodd" d="M893.541 468.061C978.581 459.523 1032.55 560.032 1076.77 633.17C1109.98 688.106 1111.94 752.672 1104.15 816.395C1097.5 870.857 1070.23 916.161 1036.87 959.727C995.861 1013.3 959.7 1078.27 893.541 1091.5C817.697 1106.66 728.843 1090.14 678.599 1031.34C630.002 974.464 645.321 890.037 658.475 816.395C668.978 757.598 710.34 716.113 743.75 666.603C791.959 595.165 807.789 476.67 893.541 468.061Z" fill="#FFBF43"/>
<path fill-rule="evenodd" clip-rule="evenodd" d="M1894.06 -61.6293C1974.96 -40.4494 1997.3 58.1621 2043.61 127.799C2075.8 176.19 2108.23 220.343 2119.52 277.354C2134.55 353.286 2162.48 437.781 2117.42 500.719C2068.73 568.738 1977.69 593.82 1894.06 592.286C1811.86 590.778 1721.44 562.925 1678.74 492.672C1639.75 428.519 1709.06 352.152 1702.65 277.354C1694.87 186.355 1593.53 101.261 1638.43 21.7306C1684.24 -59.4002 1803.92 -85.2245 1894.06 -61.6293Z" fill="#FFBF43"/>
<path fill-rule="evenodd" clip-rule="evenodd" d="M299.46 -129.652C381.415 -124.904 434.64 -51.179 494.038 5.48616C555.799 64.4043 650.633 114.889 645.081 200.064C639.573 284.578 544.016 329.263 470.225 370.829C418.165 400.154 358.177 383.676 299.46 394.749C212.214 411.203 118.523 505.824 49.3187 450.206C-18.2788 395.879 51.3792 286.59 57.2192 200.064C62.3483 124.074 35.856 42.9336 80.9507 -18.4453C131.254 -86.9133 214.642 -134.566 299.46 -129.652Z" fill="#FFBF43"/>
<path fill-rule="evenodd" clip-rule="evenodd" d="M1026.94 1822.4C1112.08 1809.07 1199.95 1852.72 1256.7 1917.58C1310.58 1979.16 1317.01 2065.71 1311.26 2147.33C1305.98 2222.27 1283.38 2297.83 1226.46 2346.85C1172.73 2393.11 1096.59 2405.44 1026.94 2392.19C967.655 2380.92 933.729 2325.9 891.193 2283.08C848.899 2240.51 789.933 2207.02 783.67 2147.33C777.019 2083.96 821.172 2030.76 859.36 1979.75C907.101 1915.98 948.243 1834.71 1026.94 1822.4Z" fill="#FFBF43"/>
<path fill-rule="evenodd" clip-rule="evenodd" d="M-153.504 1450.13C-69.2596 1429.71 23.1322 1379.21 95.5631 1426.83C172.677 1477.53 212.796 1586.5 189.879 1675.9C168.778 1758.21 62.1064 1772.61 -6.07709 1823.32C-56.8855 1861.11 -90.6516 1923.6 -153.504 1931.29C-222.305 1939.7 -286.435 1905.82 -342.025 1864.42C-409.742 1813.98 -505.442 1759.85 -496.404 1675.9C-487.352 1591.82 -376.01 1570.53 -305.378 1524.02C-256.496 1491.84 -210.383 1463.92 -153.504 1450.13Z" fill="#FFBF43"/>
<path fill-rule="evenodd" clip-rule="evenodd" d="M252.414 2629.06C167.374 2620.52 113.409 2721.03 69.1885 2794.17C35.9728 2849.11 34.0175 2913.67 41.802 2977.39C48.4552 3031.86 75.728 3077.16 109.081 3120.73C150.094 3174.3 186.255 3239.27 252.414 3252.5C328.258 3267.66 417.112 3251.14 467.357 3192.34C515.953 3135.46 500.634 3051.04 487.48 2977.39C476.977 2918.6 435.615 2877.11 402.205 2827.6C353.996 2756.16 338.166 2637.67 252.414 2629.06Z" fill="#FFBF43"/>
<path fill-rule="evenodd" clip-rule="evenodd" d="M-748.101 2099.37C-829.008 2120.55 -851.34 2219.16 -897.656 2288.8C-929.841 2337.19 -962.278 2381.34 -973.562 2438.35C-988.59 2514.29 -1016.52 2598.78 -971.466 2661.72C-922.771 2729.74 -831.739 2754.82 -748.101 2753.29C-665.905 2751.78 -575.48 2723.92 -532.784 2653.67C-493.795 2589.52 -563.101 2513.15 -556.699 2438.35C-548.911 2347.35 -447.572 2262.26 -492.477 2182.73C-538.287 2101.6 -657.968 2075.78 -748.101 2099.37Z" fill="#FFBF43"/>
<path fill-rule="evenodd" clip-rule="evenodd" d="M846.495 2031.35C764.54 2036.1 711.315 2109.82 651.917 2166.49C590.156 2225.4 495.322 2275.89 500.874 2361.06C506.382 2445.58 601.939 2490.26 675.73 2531.83C727.79 2561.15 787.778 2544.68 846.495 2555.75C933.741 2572.2 1027.43 2666.82 1096.64 2611.21C1164.23 2556.88 1094.58 2447.59 1088.74 2361.06C1083.61 2285.07 1110.1 2203.93 1065 2142.55C1014.7 2074.09 931.313 2026.43 846.495 2031.35Z" fill="#FFBF43"/>
<path fill-rule="evenodd" clip-rule="evenodd" d="M119.012 3983.4C33.8706 3970.07 -53.9974 4013.72 -110.745 4078.58C-164.63 4140.16 -171.056 4226.71 -165.305 4308.33C-160.025 4383.27 -137.424 4458.83 -80.5016 4507.85C-26.7795 4554.11 49.3613 4566.44 119.012 4553.19C178.3 4541.92 212.226 4486.9 254.762 4444.08C297.057 4401.51 356.022 4368.02 362.285 4308.33C368.936 4244.96 324.783 4191.76 286.595 4140.75C238.854 4076.98 197.712 3995.71 119.012 3983.4Z" fill="#FFBF43"/>
<path fill-rule="evenodd" clip-rule="evenodd" d="M1299.46 3611.13C1215.21 3590.71 1122.82 3540.21 1050.39 3587.83C973.278 3638.53 933.159 3747.5 956.076 3836.9C977.177 3919.21 1083.85 3933.61 1152.03 3984.32C1202.84 4022.11 1236.61 4084.6 1299.46 4092.29C1368.26 4100.7 1432.39 4066.82 1487.98 4025.42C1555.7 3974.98 1651.4 3920.85 1642.36 3836.9C1633.31 3752.82 1521.96 3731.53 1451.33 3685.02C1402.45 3652.84 1356.34 3624.92 1299.46 3611.13Z" fill="#FFBF43"/>
</g>
</g>
<mask id="mask1_259_373" style="mask-type:alpha" maskUnits="userSpaceOnUse" x="0" y="0" width="1280" height="800">
<rect width="1280" height="800" fill="#D9D9D9"/>
</mask>
<g mask="url(#mask1_259_373)">
<g filter="url(#filter1_f_259_373)">
<path fill-rule="evenodd" clip-rule="evenodd" d="M893.541 468.061C978.581 459.523 1032.55 560.032 1076.77 633.17C1109.98 688.106 1111.94 752.672 1104.15 816.395C1097.5 870.857 1070.23 916.161 1036.87 959.727C995.861 1013.3 959.7 1078.27 893.541 1091.5C817.697 1106.66 728.843 1090.14 678.599 1031.34C630.002 974.464 645.321 890.037 658.475 816.395C668.978 757.598 710.34 716.113 743.75 666.603C791.959 595.165 807.789 476.67 893.541 468.061Z" fill="#FFBF43"/>
<path fill-rule="evenodd" clip-rule="evenodd" d="M1894.06 -61.6293C1974.96 -40.4494 1997.3 58.1621 2043.61 127.799C2075.8 176.19 2108.23 220.343 2119.52 277.354C2134.55 353.286 2162.48 437.781 2117.42 500.719C2068.73 568.738 1977.69 593.82 1894.06 592.286C1811.86 590.778 1721.44 562.925 1678.74 492.672C1639.75 428.519 1709.06 352.152 1702.65 277.354C1694.87 186.355 1593.53 101.261 1638.43 21.7306C1684.24 -59.4002 1803.92 -85.2245 1894.06 -61.6293Z" fill="#FFBF43"/>
<path fill-rule="evenodd" clip-rule="evenodd" d="M299.46 -129.652C381.415 -124.904 434.64 -51.179 494.038 5.48616C555.799 64.4043 650.633 114.889 645.081 200.064C639.573 284.578 544.016 329.263 470.225 370.829C418.165 400.154 358.177 383.676 299.46 394.749C212.214 411.203 118.523 505.824 49.3187 450.206C-18.2788 395.879 51.3792 286.59 57.2192 200.064C62.3483 124.074 35.856 42.9336 80.9507 -18.4453C131.254 -86.9133 214.642 -134.566 299.46 -129.652Z" fill="#FFBF43"/>
<path fill-rule="evenodd" clip-rule="evenodd" d="M1026.94 1822.4C1112.08 1809.07 1199.95 1852.72 1256.7 1917.58C1310.58 1979.16 1317.01 2065.71 1311.26 2147.33C1305.98 2222.27 1283.38 2297.83 1226.46 2346.85C1172.73 2393.11 1096.59 2405.44 1026.94 2392.19C967.655 2380.92 933.729 2325.9 891.193 2283.08C848.899 2240.51 789.933 2207.02 783.67 2147.33C777.019 2083.96 821.172 2030.76 859.36 1979.75C907.101 1915.98 948.243 1834.71 1026.94 1822.4Z" fill="#FFBF43"/>
<path fill-rule="evenodd" clip-rule="evenodd" d="M-153.504 1450.13C-69.2596 1429.71 23.1322 1379.21 95.5631 1426.83C172.677 1477.53 212.796 1586.5 189.879 1675.9C168.778 1758.21 62.1064 1772.61 -6.07709 1823.32C-56.8855 1861.11 -90.6516 1923.6 -153.504 1931.29C-222.305 1939.7 -286.435 1905.82 -342.025 1864.42C-409.742 1813.98 -505.442 1759.85 -496.404 1675.9C-487.352 1591.82 -376.01 1570.53 -305.378 1524.02C-256.496 1491.84 -210.383 1463.92 -153.504 1450.13Z" fill="#FFBF43"/>
<path fill-rule="evenodd" clip-rule="evenodd" d="M252.414 2629.06C167.374 2620.52 113.409 2721.03 69.1885 2794.17C35.9728 2849.11 34.0175 2913.67 41.802 2977.39C48.4552 3031.86 75.728 3077.16 109.081 3120.73C150.094 3174.3 186.255 3239.27 252.414 3252.5C328.258 3267.66 417.112 3251.14 467.357 3192.34C515.953 3135.46 500.634 3051.04 487.48 2977.39C476.977 2918.6 435.615 2877.11 402.205 2827.6C353.996 2756.16 338.166 2637.67 252.414 2629.06Z" fill="#FFBF43"/>
<path fill-rule="evenodd" clip-rule="evenodd" d="M-748.101 2099.37C-829.008 2120.55 -851.34 2219.16 -897.656 2288.8C-929.841 2337.19 -962.278 2381.34 -973.562 2438.35C-988.59 2514.29 -1016.52 2598.78 -971.466 2661.72C-922.771 2729.74 -831.739 2754.82 -748.101 2753.29C-665.905 2751.78 -575.48 2723.92 -532.784 2653.67C-493.795 2589.52 -563.101 2513.15 -556.699 2438.35C-548.911 2347.35 -447.572 2262.26 -492.477 2182.73C-538.287 2101.6 -657.968 2075.78 -748.101 2099.37Z" fill="#FFBF43"/>
<path fill-rule="evenodd" clip-rule="evenodd" d="M846.495 2031.35C764.54 2036.1 711.315 2109.82 651.917 2166.49C590.156 2225.4 495.322 2275.89 500.874 2361.06C506.382 2445.58 601.939 2490.26 675.73 2531.83C727.79 2561.15 787.778 2544.68 846.495 2555.75C933.741 2572.2 1027.43 2666.82 1096.64 2611.21C1164.23 2556.88 1094.58 2447.59 1088.74 2361.06C1083.61 2285.07 1110.1 2203.93 1065 2142.55C1014.7 2074.09 931.313 2026.43 846.495 2031.35Z" fill="#FFBF43"/>
<path fill-rule="evenodd" clip-rule="evenodd" d="M119.012 3983.4C33.8706 3970.07 -53.9974 4013.72 -110.745 4078.58C-164.63 4140.16 -171.056 4226.71 -165.305 4308.33C-160.025 4383.27 -137.424 4458.83 -80.5016 4507.85C-26.7795 4554.11 49.3613 4566.44 119.012 4553.19C178.3 4541.92 212.226 4486.9 254.762 4444.08C297.057 4401.51 356.022 4368.02 362.285 4308.33C368.936 4244.96 324.783 4191.76 286.595 4140.75C238.854 4076.98 197.712 3995.71 119.012 3983.4Z" fill="#FFBF43"/>
<path fill-rule="evenodd" clip-rule="evenodd" d="M1299.46 3611.13C1215.21 3590.71 1122.82 3540.21 1050.39 3587.83C973.278 3638.53 933.159 3747.5 956.076 3836.9C977.177 3919.21 1083.85 3933.61 1152.03 3984.32C1202.84 4022.11 1236.61 4084.6 1299.46 4092.29C1368.26 4100.7 1432.39 4066.82 1487.98 4025.42C1555.7 3974.98 1651.4 3920.85 1642.36 3836.9C1633.31 3752.82 1521.96 3731.53 1451.33 3685.02C1402.45 3652.84 1356.34 3624.92 1299.46 3611.13Z" fill="#FFBF43"/>
</g>
</g>
<mask id="mask2_259_373" style="mask-type:alpha" maskUnits="userSpaceOnUse" x="0" y="800" width="1280" height="800">
<rect y="800" width="1280" height="800" fill="#D9D9D9"/>
</mask>
<g mask="url(#mask2_259_373)">
<g filter="url(#filter2_f_259_373)">
<path fill-rule="evenodd" clip-rule="evenodd" d="M893.541 468.061C978.581 459.523 1032.55 560.032 1076.77 633.17C1109.98 688.106 1111.94 752.672 1104.15 816.395C1097.5 870.857 1070.23 916.161 1036.87 959.727C995.861 1013.3 959.7 1078.27 893.541 1091.5C817.697 1106.66 728.843 1090.14 678.599 1031.34C630.002 974.464 645.321 890.037 658.475 816.395C668.978 757.598 710.34 716.113 743.75 666.603C791.959 595.165 807.789 476.67 893.541 468.061Z" fill="#FFBF43"/>
<path fill-rule="evenodd" clip-rule="evenodd" d="M1894.06 -61.6293C1974.96 -40.4494 1997.3 58.1621 2043.61 127.799C2075.8 176.19 2108.23 220.343 2119.52 277.354C2134.55 353.286 2162.48 437.781 2117.42 500.719C2068.73 568.738 1977.69 593.82 1894.06 592.286C1811.86 590.778 1721.44 562.925 1678.74 492.672C1639.75 428.519 1709.06 352.152 1702.65 277.354C1694.87 186.355 1593.53 101.261 1638.43 21.7306C1684.24 -59.4002 1803.92 -85.2245 1894.06 -61.6293Z" fill="#FFBF43"/>
<path fill-rule="evenodd" clip-rule="evenodd" d="M299.46 -129.652C381.415 -124.904 434.64 -51.179 494.038 5.48616C555.799 64.4043 650.633 114.889 645.081 200.064C639.573 284.578 544.016 329.263 470.225 370.829C418.165 400.154 358.177 383.676 299.46 394.749C212.214 411.203 118.523 505.824 49.3187 450.206C-18.2788 395.879 51.3792 286.59 57.2192 200.064C62.3483 124.074 35.856 42.9336 80.9507 -18.4453C131.254 -86.9133 214.642 -134.566 299.46 -129.652Z" fill="#FFBF43"/>
<path fill-rule="evenodd" clip-rule="evenodd" d="M1026.94 1822.4C1112.08 1809.07 1199.95 1852.72 1256.7 1917.58C1310.58 1979.16 1317.01 2065.71 1311.26 2147.33C1305.98 2222.27 1283.38 2297.83 1226.46 2346.85C1172.73 2393.11 1096.59 2405.44 1026.94 2392.19C967.655 2380.92 933.729 2325.9 891.193 2283.08C848.899 2240.51 789.933 2207.02 783.67 2147.33C777.019 2083.96 821.172 2030.76 859.36 1979.75C907.101 1915.98 948.243 1834.71 1026.94 1822.4Z" fill="#FFBF43"/>
<path fill-rule="evenodd" clip-rule="evenodd" d="M-153.504 1450.13C-69.2596 1429.71 23.1322 1379.21 95.5631 1426.83C172.677 1477.53 212.796 1586.5 189.879 1675.9C168.778 1758.21 62.1064 1772.61 -6.07709 1823.32C-56.8855 1861.11 -90.6516 1923.6 -153.504 1931.29C-222.305 1939.7 -286.435 1905.82 -342.025 1864.42C-409.742 1813.98 -505.442 1759.85 -496.404 1675.9C-487.352 1591.82 -376.01 1570.53 -305.378 1524.02C-256.496 1491.84 -210.383 1463.92 -153.504 1450.13Z" fill="#FFBF43"/>
<path fill-rule="evenodd" clip-rule="evenodd" d="M252.414 2629.06C167.374 2620.52 113.409 2721.03 69.1885 2794.17C35.9728 2849.11 34.0175 2913.67 41.802 2977.39C48.4552 3031.86 75.728 3077.16 109.081 3120.73C150.094 3174.3 186.255 3239.27 252.414 3252.5C328.258 3267.66 417.112 3251.14 467.357 3192.34C515.953 3135.46 500.634 3051.04 487.48 2977.39C476.977 2918.6 435.615 2877.11 402.205 2827.6C353.996 2756.16 338.166 2637.67 252.414 2629.06Z" fill="#FFBF43"/>
<path fill-rule="evenodd" clip-rule="evenodd" d="M-748.101 2099.37C-829.008 2120.55 -851.34 2219.16 -897.656 2288.8C-929.841 2337.19 -962.278 2381.34 -973.562 2438.35C-988.59 2514.29 -1016.52 2598.78 -971.466 2661.72C-922.771 2729.74 -831.739 2754.82 -748.101 2753.29C-665.905 2751.78 -575.48 2723.92 -532.784 2653.67C-493.795 2589.52 -563.101 2513.15 -556.699 2438.35C-548.911 2347.35 -447.572 2262.26 -492.477 2182.73C-538.287 2101.6 -657.968 2075.78 -748.101 2099.37Z" fill="#FFBF43"/>
<path fill-rule="evenodd" clip-rule="evenodd" d="M846.495 2031.35C764.54 2036.1 711.315 2109.82 651.917 2166.49C590.156 2225.4 495.322 2275.89 500.874 2361.06C506.382 2445.58 601.939 2490.26 675.73 2531.83C727.79 2561.15 787.778 2544.68 846.495 2555.75C933.741 2572.2 1027.43 2666.82 1096.64 2611.21C1164.23 2556.88 1094.58 2447.59 1088.74 2361.06C1083.61 2285.07 1110.1 2203.93 1065 2142.55C1014.7 2074.09 931.313 2026.43 846.495 2031.35Z" fill="#FFBF43"/>
<path fill-rule="evenodd" clip-rule="evenodd" d="M119.012 3983.4C33.8706 3970.07 -53.9974 4013.72 -110.745 4078.58C-164.63 4140.16 -171.056 4226.71 -165.305 4308.33C-160.025 4383.27 -137.424 4458.83 -80.5016 4507.85C-26.7795 4554.11 49.3613 4566.44 119.012 4553.19C178.3 4541.92 212.226 4486.9 254.762 4444.08C297.057 4401.51 356.022 4368.02 362.285 4308.33C368.936 4244.96 324.783 4191.76 286.595 4140.75C238.854 4076.98 197.712 3995.71 119.012 3983.4Z" fill="#FFBF43"/>
<path fill-rule="evenodd" clip-rule="evenodd" d="M1299.46 3611.13C1215.21 3590.71 1122.82 3540.21 1050.39 3587.83C973.278 3638.53 933.159 3747.5 956.076 3836.9C977.177 3919.21 1083.85 3933.61 1152.03 3984.32C1202.84 4022.11 1236.61 4084.6 1299.46 4092.29C1368.26 4100.7 1432.39 4066.82 1487.98 4025.42C1555.7 3974.98 1651.4 3920.85 1642.36 3836.9C1633.31 3752.82 1521.96 3731.53 1451.33 3685.02C1402.45 3652.84 1356.34 3624.92 1299.46 3611.13Z" fill="#FFBF43"/>
</g>
</g>
<mask id="mask3_259_373" style="mask-type:alpha" maskUnits="userSpaceOnUse" x="0" y="2400" width="1280" height="800">
<rect y="2400" width="1280" height="800" fill="#D9D9D9"/>
</mask>
<g mask="url(#mask3_259_373)">
<g filter="url(#filter3_f_259_373)">
<path fill-rule="evenodd" clip-rule="evenodd" d="M893.541 468.061C978.581 459.523 1032.55 560.032 1076.77 633.17C1109.98 688.106 1111.94 752.672 1104.15 816.395C1097.5 870.857 1070.23 916.161 1036.87 959.727C995.861 1013.3 959.7 1078.27 893.541 1091.5C817.697 1106.66 728.843 1090.14 678.599 1031.34C630.002 974.464 645.321 890.037 658.475 816.395C668.978 757.598 710.34 716.113 743.75 666.603C791.959 595.165 807.789 476.67 893.541 468.061Z" fill="#FFBF43"/>
<path fill-rule="evenodd" clip-rule="evenodd" d="M1894.06 -61.6293C1974.96 -40.4494 1997.3 58.1621 2043.61 127.799C2075.8 176.19 2108.23 220.343 2119.52 277.354C2134.55 353.286 2162.48 437.781 2117.42 500.719C2068.73 568.738 1977.69 593.82 1894.06 592.286C1811.86 590.778 1721.44 562.925 1678.74 492.672C1639.75 428.519 1709.06 352.152 1702.65 277.354C1694.87 186.355 1593.53 101.261 1638.43 21.7306C1684.24 -59.4002 1803.92 -85.2245 1894.06 -61.6293Z" fill="#FFBF43"/>
<path fill-rule="evenodd" clip-rule="evenodd" d="M299.46 -129.652C381.415 -124.904 434.64 -51.179 494.038 5.48616C555.799 64.4043 650.633 114.889 645.081 200.064C639.573 284.578 544.016 329.263 470.225 370.829C418.165 400.154 358.177 383.676 299.46 394.749C212.214 411.203 118.523 505.824 49.3187 450.206C-18.2788 395.879 51.3792 286.59 57.2192 200.064C62.3483 124.074 35.856 42.9336 80.9507 -18.4453C131.254 -86.9133 214.642 -134.566 299.46 -129.652Z" fill="#FFBF43"/>
<path fill-rule="evenodd" clip-rule="evenodd" d="M1026.94 1822.4C1112.08 1809.07 1199.95 1852.72 1256.7 1917.58C1310.58 1979.16 1317.01 2065.71 1311.26 2147.33C1305.98 2222.27 1283.38 2297.83 1226.46 2346.85C1172.73 2393.11 1096.59 2405.44 1026.94 2392.19C967.655 2380.92 933.729 2325.9 891.193 2283.08C848.899 2240.51 789.933 2207.02 783.67 2147.33C777.019 2083.96 821.172 2030.76 859.36 1979.75C907.101 1915.98 948.243 1834.71 1026.94 1822.4Z" fill="#FFBF43"/>
<path fill-rule="evenodd" clip-rule="evenodd" d="M-153.504 1450.13C-69.2596 1429.71 23.1322 1379.21 95.5631 1426.83C172.677 1477.53 212.796 1586.5 189.879 1675.9C168.778 1758.21 62.1064 1772.61 -6.07709 1823.32C-56.8855 1861.11 -90.6516 1923.6 -153.504 1931.29C-222.305 1939.7 -286.435 1905.82 -342.025 1864.42C-409.742 1813.98 -505.442 1759.85 -496.404 1675.9C-487.352 1591.82 -376.01 1570.53 -305.378 1524.02C-256.496 1491.84 -210.383 1463.92 -153.504 1450.13Z" fill="#FFBF43"/>
<path fill-rule="evenodd" clip-rule="evenodd" d="M252.414 2629.06C167.374 2620.52 113.409 2721.03 69.1885 2794.17C35.9728 2849.11 34.0175 2913.67 41.802 2977.39C48.4552 3031.86 75.728 3077.16 109.081 3120.73C150.094 3174.3 186.255 3239.27 252.414 3252.5C328.258 3267.66 417.112 3251.14 467.357 3192.34C515.953 3135.46 500.634 3051.04 487.48 2977.39C476.977 2918.6 435.615 2877.11 402.205 2827.6C353.996 2756.16 338.166 2637.67 252.414 2629.06Z" fill="#FFBF43"/>
<path fill-rule="evenodd" clip-rule="evenodd" d="M-748.101 2099.37C-829.008 2120.55 -851.34 2219.16 -897.656 2288.8C-929.841 2337.19 -962.278 2381.34 -973.562 2438.35C-988.59 2514.29 -1016.52 2598.78 -971.466 2661.72C-922.771 2729.74 -831.739 2754.82 -748.101 2753.29C-665.905 2751.78 -575.48 2723.92 -532.784 2653.67C-493.795 2589.52 -563.101 2513.15 -556.699 2438.35C-548.911 2347.35 -447.572 2262.26 -492.477 2182.73C-538.287 2101.6 -657.968 2075.78 -748.101 2099.37Z" fill="#FFBF43"/>
<path fill-rule="evenodd" clip-rule="evenodd" d="M846.495 2031.35C764.54 2036.1 711.315 2109.82 651.917 2166.49C590.156 2225.4 495.322 2275.89 500.874 2361.06C506.382 2445.58 601.939 2490.26 675.73 2531.83C727.79 2561.15 787.778 2544.68 846.495 2555.75C933.741 2572.2 1027.43 2666.82 1096.64 2611.21C1164.23 2556.88 1094.58 2447.59 1088.74 2361.06C1083.61 2285.07 1110.1 2203.93 1065 2142.55C1014.7 2074.09 931.313 2026.43 846.495 2031.35Z" fill="#FFBF43"/>
<path fill-rule="evenodd" clip-rule="evenodd" d="M119.012 3983.4C33.8706 3970.07 -53.9974 4013.72 -110.745 4078.58C-164.63 4140.16 -171.056 4226.71 -165.305 4308.33C-160.025 4383.27 -137.424 4458.83 -80.5016 4507.85C-26.7795 4554.11 49.3613 4566.44 119.012 4553.19C178.3 4541.92 212.226 4486.9 254.762 4444.08C297.057 4401.51 356.022 4368.02 362.285 4308.33C368.936 4244.96 324.783 4191.76 286.595 4140.75C238.854 4076.98 197.712 3995.71 119.012 3983.4Z" fill="#FFBF43"/>
<path fill-rule="evenodd" clip-rule="evenodd" d="M1299.46 3611.13C1215.21 3590.71 1122.82 3540.21 1050.39 3587.83C973.278 3638.53 933.159 3747.5 956.076 3836.9C977.177 3919.21 1083.85 3933.61 1152.03 3984.32C1202.84 4022.11 1236.61 4084.6 1299.46 4092.29C1368.26 4100.7 1432.39 4066.82 1487.98 4025.42C1555.7 3974.98 1651.4 3920.85 1642.36 3836.9C1633.31 3752.82 1521.96 3731.53 1451.33 3685.02C1402.45 3652.84 1356.34 3624.92 1299.46 3611.13Z" fill="#FFBF43"/>
</g>
</g>
<mask id="mask4_259_373" style="mask-type:alpha" maskUnits="userSpaceOnUse" x="0" y="3200" width="1280" height="800">
<rect y="3200" width="1280" height="800" fill="#D9D9D9"/>
</mask>
<g mask="url(#mask4_259_373)">
<g filter="url(#filter4_f_259_373)">
<path fill-rule="evenodd" clip-rule="evenodd" d="M893.541 468.061C978.581 459.523 1032.55 560.032 1076.77 633.17C1109.98 688.106 1111.94 752.672 1104.15 816.395C1097.5 870.857 1070.23 916.161 1036.87 959.727C995.861 1013.3 959.7 1078.27 893.541 1091.5C817.697 1106.66 728.843 1090.14 678.599 1031.34C630.002 974.464 645.321 890.037 658.475 816.395C668.978 757.598 710.34 716.113 743.75 666.603C791.959 595.165 807.789 476.67 893.541 468.061Z" fill="#FFBF43"/>
<path fill-rule="evenodd" clip-rule="evenodd" d="M1894.06 -61.6293C1974.96 -40.4494 1997.3 58.1621 2043.61 127.799C2075.8 176.19 2108.23 220.343 2119.52 277.354C2134.55 353.286 2162.48 437.781 2117.42 500.719C2068.73 568.738 1977.69 593.82 1894.06 592.286C1811.86 590.778 1721.44 562.925 1678.74 492.672C1639.75 428.519 1709.06 352.152 1702.65 277.354C1694.87 186.355 1593.53 101.261 1638.43 21.7306C1684.24 -59.4002 1803.92 -85.2245 1894.06 -61.6293Z" fill="#FFBF43"/>
<path fill-rule="evenodd" clip-rule="evenodd" d="M299.46 -129.652C381.415 -124.904 434.64 -51.179 494.038 5.48616C555.799 64.4043 650.633 114.889 645.081 200.064C639.573 284.578 544.016 329.263 470.225 370.829C418.165 400.154 358.177 383.676 299.46 394.749C212.214 411.203 118.523 505.824 49.3187 450.206C-18.2788 395.879 51.3792 286.59 57.2192 200.064C62.3483 124.074 35.856 42.9336 80.9507 -18.4453C131.254 -86.9133 214.642 -134.566 299.46 -129.652Z" fill="#FFBF43"/>
<path fill-rule="evenodd" clip-rule="evenodd" d="M1026.94 1822.4C1112.08 1809.07 1199.95 1852.72 1256.7 1917.58C1310.58 1979.16 1317.01 2065.71 1311.26 2147.33C1305.98 2222.27 1283.38 2297.83 1226.46 2346.85C1172.73 2393.11 1096.59 2405.44 1026.94 2392.19C967.655 2380.92 933.729 2325.9 891.193 2283.08C848.899 2240.51 789.933 2207.02 783.67 2147.33C777.019 2083.96 821.172 2030.76 859.36 1979.75C907.101 1915.98 948.243 1834.71 1026.94 1822.4Z" fill="#FFBF43"/>
<path fill-rule="evenodd" clip-rule="evenodd" d="M-153.504 1450.13C-69.2596 1429.71 23.1322 1379.21 95.5631 1426.83C172.677 1477.53 212.796 1586.5 189.879 1675.9C168.778 1758.21 62.1064 1772.61 -6.07709 1823.32C-56.8855 1861.11 -90.6516 1923.6 -153.504 1931.29C-222.305 1939.7 -286.435 1905.82 -342.025 1864.42C-409.742 1813.98 -505.442 1759.85 -496.404 1675.9C-487.352 1591.82 -376.01 1570.53 -305.378 1524.02C-256.496 1491.84 -210.383 1463.92 -153.504 1450.13Z" fill="#FFBF43"/>
<path fill-rule="evenodd" clip-rule="evenodd" d="M252.414 2629.06C167.374 2620.52 113.409 2721.03 69.1885 2794.17C35.9728 2849.11 34.0175 2913.67 41.802 2977.39C48.4552 3031.86 75.728 3077.16 109.081 3120.73C150.094 3174.3 186.255 3239.27 252.414 3252.5C328.258 3267.66 417.112 3251.14 467.357 3192.34C515.953 3135.46 500.634 3051.04 487.48 2977.39C476.977 2918.6 435.615 2877.11 402.205 2827.6C353.996 2756.16 338.166 2637.67 252.414 2629.06Z" fill="#FFBF43"/>
<path fill-rule="evenodd" clip-rule="evenodd" d="M-748.101 2099.37C-829.008 2120.55 -851.34 2219.16 -897.656 2288.8C-929.841 2337.19 -962.278 2381.34 -973.562 2438.35C-988.59 2514.29 -1016.52 2598.78 -971.466 2661.72C-922.771 2729.74 -831.739 2754.82 -748.101 2753.29C-665.905 2751.78 -575.48 2723.92 -532.784 2653.67C-493.795 2589.52 -563.101 2513.15 -556.699 2438.35C-548.911 2347.35 -447.572 2262.26 -492.477 2182.73C-538.287 2101.6 -657.968 2075.78 -748.101 2099.37Z" fill="#FFBF43"/>
<path fill-rule="evenodd" clip-rule="evenodd" d="M846.495 2031.35C764.54 2036.1 711.315 2109.82 651.917 2166.49C590.156 2225.4 495.322 2275.89 500.874 2361.06C506.382 2445.58 601.939 2490.26 675.73 2531.83C727.79 2561.15 787.778 2544.68 846.495 2555.75C933.741 2572.2 1027.43 2666.82 1096.64 2611.21C1164.23 2556.88 1094.58 2447.59 1088.74 2361.06C1083.61 2285.07 1110.1 2203.93 1065 2142.55C1014.7 2074.09 931.313 2026.43 846.495 2031.35Z" fill="#FFBF43"/>
<path fill-rule="evenodd" clip-rule="evenodd" d="M119.012 3983.4C33.8706 3970.07 -53.9974 4013.72 -110.745 4078.58C-164.63 4140.16 -171.056 4226.71 -165.305 4308.33C-160.025 4383.27 -137.424 4458.83 -80.5016 4507.85C-26.7795 4554.11 49.3613 4566.44 119.012 4553.19C178.3 4541.92 212.226 4486.9 254.762 4444.08C297.057 4401.51 356.022 4368.02 362.285 4308.33C368.936 4244.96 324.783 4191.76 286.595 4140.75C238.854 4076.98 197.712 3995.71 119.012 3983.4Z" fill="#FFBF43"/>
<path fill-rule="evenodd" clip-rule="evenodd" d="M1299.46 3611.13C1215.21 3590.71 1122.82 3540.21 1050.39 3587.83C973.278 3638.53 933.159 3747.5 956.076 3836.9C977.177 3919.21 1083.85 3933.61 1152.03 3984.32C1202.84 4022.11 1236.61 4084.6 1299.46 4092.29C1368.26 4100.7 1432.39 4066.82 1487.98 4025.42C1555.7 3974.98 1651.4 3920.85 1642.36 3836.9C1633.31 3752.82 1521.96 3731.53 1451.33 3685.02C1402.45 3652.84 1356.34 3624.92 1299.46 3611.13Z" fill="#FFBF43"/>
</g>
</g>
<defs>
<filter id="filter0_f_259_373" x="-1496" y="-630" width="4137.96" height="5688.2" filterUnits="userSpaceOnUse" color-interpolation-filters="sRGB">
<feFlood flood-opacity="0" result="BackgroundImageFix"/>
<feBlend mode="normal" in="SourceGraphic" in2="BackgroundImageFix" result="shape"/>
<feGaussianBlur stdDeviation="250" result="effect1_foregroundBlur_259_373"/>
</filter>
<filter id="filter1_f_259_373" x="-1496" y="-630" width="4137.96" height="5688.2" filterUnits="userSpaceOnUse" color-interpolation-filters="sRGB">
<feFlood flood-opacity="0" result="BackgroundImageFix"/>
<feBlend mode="normal" in="SourceGraphic" in2="BackgroundImageFix" result="shape"/>
<feGaussianBlur stdDeviation="250" result="effect1_foregroundBlur_259_373"/>
</filter>
<filter id="filter2_f_259_373" x="-1496" y="-630" width="4137.96" height="5688.2" filterUnits="userSpaceOnUse" color-interpolation-filters="sRGB">
<feFlood flood-opacity="0" result="BackgroundImageFix"/>
<feBlend mode="normal" in="SourceGraphic" in2="BackgroundImageFix" result="shape"/>
<feGaussianBlur stdDeviation="250" result="effect1_foregroundBlur_259_373"/>
</filter>
<filter id="filter3_f_259_373" x="-1496" y="-630" width="4137.96" height="5688.2" filterUnits="userSpaceOnUse" color-interpolation-filters="sRGB">
<feFlood flood-opacity="0" result="BackgroundImageFix"/>
<feBlend mode="normal" in="SourceGraphic" in2="BackgroundImageFix" result="shape"/>
<feGaussianBlur stdDeviation="250" result="effect1_foregroundBlur_259_373"/>
</filter>
<filter id="filter4_f_259_373" x="-1496" y="-630" width="4137.96" height="5688.2" filterUnits="userSpaceOnUse" color-interpolation-filters="sRGB">
<feFlood flood-opacity="0" result="BackgroundImageFix"/>
<feBlend mode="normal" in="SourceGraphic" in2="BackgroundImageFix" result="shape"/>
<feGaussianBlur stdDeviation="250" result="effect1_foregroundBlur_259_373"/>
</filter>
</defs>
</svg>
