<svg width="1280" height="995" viewBox="0 0 1280 995" fill="none" xmlns="http://www.w3.org/2000/svg">
<path d="M-1362 967.758C-1257.63 868.664 -977.441 688.328 -691.649 759.738C-334.409 849 31.9379 1205.27 546.084 809.415C1060.23 413.555 1462.3 -13.3519 2052.1 279.274C2523.93 513.374 2647.96 482.378 2651 437.617" stroke="url(#paint0_linear_191_808)" stroke-width="4"/>
<path d="M-1362 967.758C-1257.63 868.664 -977.441 688.328 -691.649 759.738C-334.409 849 31.9379 1205.27 546.084 809.415C1060.23 413.555 1462.3 -13.3519 2052.1 279.274C2523.93 513.374 2647.96 482.378 2651 437.617" stroke="url(#paint1_radial_191_808)" stroke-width="4"/>
<path d="M-1362 967.758C-1257.63 868.664 -977.441 688.328 -691.649 759.738C-334.409 849 31.9379 1205.27 546.084 809.415C1060.23 413.555 1462.3 -13.3519 2052.1 279.274C2523.93 513.374 2647.96 482.378 2651 437.617" stroke="#FFCF7A" stroke-width="4" style="mix-blend-mode:color"/>
<path d="M-1362 967.758C-1257.63 868.664 -977.441 688.328 -691.649 759.738C-334.409 849 31.9379 1205.27 546.084 809.415C1060.23 413.555 1462.3 -13.3519 2052.1 279.274C2523.93 513.374 2647.96 482.378 2651 437.617" stroke="#ECD18F" stroke-width="4"/>
<path d="M2479 317.718C2388.44 395.281 2145.33 536.432 1897.35 480.539C1587.38 410.672 1269.51 131.811 823.394 441.656C377.28 751.501 28.4112 1085.65 -483.344 856.606C-892.748 673.372 -1000.37 697.633 -1003 732.668" stroke="url(#paint2_linear_191_808)" stroke-width="2"/>
<path d="M2479 317.718C2388.44 395.281 2145.33 536.432 1897.35 480.539C1587.38 410.672 1269.51 131.811 823.394 441.656C377.28 751.501 28.4112 1085.65 -483.344 856.606C-892.748 673.372 -1000.37 697.633 -1003 732.668" stroke="url(#paint3_radial_191_808)" stroke-width="2"/>
<path d="M2479 317.718C2388.44 395.281 2145.33 536.432 1897.35 480.539C1587.38 410.672 1269.51 131.811 823.394 441.656C377.28 751.501 28.4112 1085.65 -483.344 856.606C-892.748 673.372 -1000.37 697.633 -1003 732.668" stroke="#FFCF7A" stroke-width="2" style="mix-blend-mode:color"/>
<path d="M2479 317.718C2388.44 395.281 2145.33 536.432 1897.35 480.539C1587.38 410.672 1269.51 131.811 823.394 441.656C377.28 751.501 28.4112 1085.65 -483.344 856.606C-892.748 673.372 -1000.37 697.633 -1003 732.668" stroke="#ECD18F" stroke-width="2"/>
<path d="M2394 269.418C2315.56 369.52 1902.79 82.0533 1688 9.91699C1419.51 -80.2534 1458 545.917 959.965 429.372C466.784 313.963 502.5 875.919 21 961.917C-558.428 1065.41 -1003.72 746.2 -1006 791.416" stroke="url(#paint4_linear_191_808)" stroke-dasharray="8 8"/>
<path d="M2394 269.418C2315.56 369.52 1902.79 82.0533 1688 9.91699C1419.51 -80.2534 1458 545.917 959.965 429.372C466.784 313.963 502.5 875.919 21 961.917C-558.428 1065.41 -1003.72 746.2 -1006 791.416" stroke="url(#paint5_radial_191_808)" stroke-dasharray="8 8"/>
<path d="M2394 269.418C2315.56 369.52 1902.79 82.0533 1688 9.91699C1419.51 -80.2534 1458 545.917 959.965 429.372C466.784 313.963 502.5 875.919 21 961.917C-558.428 1065.41 -1003.72 746.2 -1006 791.416" stroke="#FFCF7A" stroke-dasharray="8 8" style="mix-blend-mode:color"/>
<path d="M2394 269.418C2315.56 369.52 1902.79 82.0533 1688 9.91699C1419.51 -80.2534 1458 545.917 959.965 429.372C466.784 313.963 502.5 875.919 21 961.917C-558.428 1065.41 -1003.72 746.2 -1006 791.416" stroke="#ECD18F" stroke-dasharray="8 8"/>
<defs>
<linearGradient id="paint0_linear_191_808" x1="-1294.28" y1="668.129" x2="1143.83" y2="-1384.99" gradientUnits="userSpaceOnUse">
<stop stop-color="#576265"/>
<stop offset="0.117396" stop-color="#9EA1A1"/>
<stop offset="0.512757" stop-color="#848B8A"/>
<stop offset="0.550137" stop-color="#5E6364"/>
<stop offset="0.698889" stop-color="#4F4F4F"/>
<stop offset="0.753082" stop-color="#747474"/>
<stop offset="1" stop-color="#525252"/>
</linearGradient>
<radialGradient id="paint1_radial_191_808" cx="0" cy="0" r="1" gradientUnits="userSpaceOnUse" gradientTransform="translate(-313.604 146.835) rotate(29.1078) scale(1096.6 537.557)">
<stop stop-color="white"/>
<stop offset="1" stop-color="white" stop-opacity="0"/>
</radialGradient>
<linearGradient id="paint2_linear_191_808" x1="2420.24" y1="552.243" x2="488.213" y2="2355.8" gradientUnits="userSpaceOnUse">
<stop stop-color="#576265"/>
<stop offset="0.117396" stop-color="#9EA1A1"/>
<stop offset="0.512757" stop-color="#848B8A"/>
<stop offset="0.550137" stop-color="#5E6364"/>
<stop offset="0.698889" stop-color="#4F4F4F"/>
<stop offset="0.753082" stop-color="#747474"/>
<stop offset="1" stop-color="#525252"/>
</linearGradient>
<radialGradient id="paint3_radial_191_808" cx="0" cy="0" r="1" gradientUnits="userSpaceOnUse" gradientTransform="translate(1569.33 960.268) rotate(-153.332) scale(930.291 430.345)">
<stop stop-color="white"/>
<stop offset="1" stop-color="white" stop-opacity="0"/>
</radialGradient>
<linearGradient id="paint4_linear_191_808" x1="2336.63" y1="394.024" x2="-285.268" y2="1937.49" gradientUnits="userSpaceOnUse">
<stop stop-color="#576265"/>
<stop offset="0.117396" stop-color="#9EA1A1"/>
<stop offset="0.512757" stop-color="#848B8A"/>
<stop offset="0.550137" stop-color="#5E6364"/>
<stop offset="0.698889" stop-color="#4F4F4F"/>
<stop offset="0.753082" stop-color="#747474"/>
<stop offset="1" stop-color="#525252"/>
</linearGradient>
<radialGradient id="paint5_radial_191_808" cx="0" cy="0" r="1" gradientUnits="userSpaceOnUse" gradientTransform="translate(1505.75 1025.81) rotate(-141.465) scale(1037.75 583.282)">
<stop stop-color="white"/>
<stop offset="1" stop-color="white" stop-opacity="0"/>
</radialGradient>
</defs>
</svg>
