<svg width="170" height="50" viewBox="0 0 170 50" fill="none" xmlns="http://www.w3.org/2000/svg">
<path d="M18.9018 29.7914C21.048 29.7914 23.2708 28.6876 25.5703 26.4801C26.8887 25.2537 28.207 23.5981 29.5254 21.5132L29.8473 21.3293C30.0313 21.3293 30.1539 21.4213 30.2153 21.6052L30.1233 21.7892C29.4488 22.6476 28.6363 24.1346 27.6858 26.2502C26.6127 28.7643 25.555 31.9989 24.5125 35.954C25.6776 35.5861 26.8733 34.6663 28.0997 33.1946L30.3072 30.0673L30.6292 29.9294L30.8131 30.1133L30.6752 30.4812L27.6398 34.5283C26.5667 35.6014 25.509 36.2759 24.4665 36.5519C23.884 38.5754 23.3475 40.1084 22.8569 41.1509C21.9371 43.1744 20.8027 44.7074 19.4537 45.7498C17.6754 47.0682 16.0351 47.9727 14.5328 48.4632C13.0611 48.9538 11.5128 49.1991 9.88779 49.1991C8.3548 49.1991 7.15907 48.9078 6.30059 48.3253C5.44212 47.7427 5.01288 46.8689 5.01288 45.7038C5.01288 44.1095 6.07065 42.5919 8.18617 41.1509C10.6083 39.5259 14.3488 38.1615 19.4077 37.0578C19.7449 35.1875 20.1895 33.6085 20.7414 32.3208C21.2932 31.0024 22.0291 29.9907 22.9489 29.2855C22.2744 29.6534 21.6458 29.9294 21.0633 30.1133C20.4808 30.2973 19.7449 30.3893 18.8558 30.3893C16.7403 30.3893 15.0233 29.914 13.7049 28.9636C12.4172 27.9825 11.5894 26.6794 11.2215 25.0544C8.92201 24.8092 7.08242 23.9813 5.70273 22.571C4.38436 21.0993 3.72517 19.2137 3.72517 16.9143C3.72517 14.0936 4.64496 11.7787 6.48455 9.96981C8.3548 8.16088 11.0222 6.88849 14.4868 6.15266L14.4408 6.33662C11.804 7.25641 9.76516 8.45215 8.32414 9.92382C6.63785 11.7941 5.79471 14.1702 5.79471 17.0522C5.79471 19.0145 6.13197 20.5781 6.80648 21.7432C7.69562 23.2455 9.1213 24.1193 11.0835 24.3646L10.9915 22.8929C10.9915 18.9991 12.5705 15.3813 15.7285 12.0393C19.2237 8.36017 23.5161 6.52058 28.6056 6.52058C29.8014 6.52058 30.7211 6.85783 31.365 7.53235C32.0089 8.17621 32.3308 9.08067 32.3308 10.2457C32.3308 12.0853 31.6563 14.0169 30.3072 16.0405C28.7436 18.3706 26.5667 20.4095 23.7767 22.1571C23.1635 22.4943 22.4583 22.8469 21.6612 23.2149C20.864 23.5828 19.9136 23.9354 18.8098 24.2726C17.7367 24.5792 16.4337 24.8245 14.9007 25.0085C14.9007 28.1971 16.2344 29.7914 18.9018 29.7914ZM6.57653 45.6578C6.57653 47.4974 7.83359 48.4172 10.3477 48.4172C11.0529 48.4172 11.5434 48.3712 11.8194 48.2793C12.126 48.2179 12.4326 48.1413 12.7392 48.0493C13.0458 47.9573 13.3524 47.85 13.659 47.7274C15.4679 46.9609 16.8322 45.4892 17.752 43.3124C18.12 42.4539 18.6105 40.5836 19.2237 37.7016C14.7167 38.8054 11.4821 40.0011 9.51988 41.2888C7.55765 42.5765 6.57653 44.0329 6.57653 45.6578ZM31.6869 10.2457C31.6869 9.32595 31.457 8.57478 30.9971 7.99225C30.5372 7.40971 29.786 7.11844 28.7436 7.11844C25.5856 7.11844 22.4277 9.29529 19.2697 13.649C16.357 17.7267 14.9007 21.3139 14.9007 24.4106C15.6978 24.3493 16.3877 24.2573 16.9702 24.1346C17.5834 24.012 18.2426 23.8434 18.9478 23.6288C20.5114 23.1689 22.0138 22.4943 23.4548 21.6052C26.1222 20.0109 28.1917 18.0947 29.6634 15.8565C31.0124 13.8023 31.6869 11.932 31.6869 10.2457ZM41.675 26.6181C41.675 27.7525 41.4144 28.9329 40.8931 30.1593C40.4332 31.3857 39.912 32.3055 39.3295 32.9187C40.0347 32.7347 40.6479 32.4128 41.1691 31.9529C41.721 31.4623 42.2268 30.8338 42.6867 30.0673L42.9167 29.8374L43.2386 30.0213L43.0087 30.5272C42.3955 31.4777 41.6596 32.2442 40.8012 32.8267C40.2799 33.1946 39.6514 33.4399 38.9156 33.5625L37.3979 35.1262C36.3861 35.954 35.2977 36.3679 34.1327 36.3679C33.0289 36.3679 32.0631 35.908 31.2353 34.9882C30.4381 34.0378 30.0396 32.9034 30.0396 31.585C30.0396 29.7454 30.8061 27.9978 32.3391 26.3422C34.0867 24.4106 36.1409 23.4448 38.5017 23.4448C39.6361 23.4448 40.4486 23.7361 40.9391 24.3186C41.4297 24.8705 41.675 25.637 41.675 26.6181ZM34.3626 29.1935L33.3968 31.677C33.3048 32.0755 33.2282 32.4588 33.1669 32.8267C33.1055 33.1946 33.0749 33.5625 33.0749 33.9305C33.0749 35.1569 33.5195 35.7701 34.4086 35.7701C35.5123 35.7701 36.5394 35.2795 37.4899 34.2984C38.2564 33.4399 38.9922 32.2135 39.6974 30.6192L40.3413 28.6416C40.4639 28.1511 40.5559 27.7525 40.6172 27.4459C40.6785 27.1087 40.7092 26.7407 40.7092 26.3422C40.7092 24.8092 40.142 24.0427 39.0076 24.0427C38.1797 24.0427 37.26 24.6865 36.2482 25.9742C35.9722 26.3728 35.6963 26.8174 35.4204 27.3079C35.1444 27.7678 34.7918 28.3964 34.3626 29.1935ZM52.507 30.1133L52.645 30.3433L52.507 30.8032C51.1273 32.7654 50.2075 34.0071 49.7476 34.5283C48.6132 35.7547 47.4328 36.3679 46.2064 36.3679C45.5625 36.3679 45.026 36.2146 44.5968 35.908C44.2288 35.5708 44.0449 35.0342 44.0449 34.2984C44.0449 33.2253 44.3975 31.8456 45.1026 30.1593C45.4399 29.2702 45.9151 28.2124 46.5283 26.986C47.1415 25.729 47.8927 24.3033 48.7818 22.709L42.8491 30.7112L42.6192 30.9411L42.2973 30.7572L42.5272 30.2973L46.0684 25.3764L50.0235 20.2255L54.6685 11.0736L58.0258 10.8436L48 30.6652L46.8962 33.1486C46.7429 33.5472 46.6203 33.8845 46.5283 34.1604C46.467 34.4363 46.421 34.7429 46.3904 35.0802C46.3904 35.4788 46.5437 35.6934 46.8503 35.7241C47.6474 35.7241 48.6898 34.9729 49.9776 33.4706L52.0931 30.4812L52.507 30.1133ZM68.1406 30.2513L68.3246 30.0213L68.6005 30.1133L68.6925 30.2513L68.5545 30.6192C67.4508 32.2442 66.5923 33.3786 65.9791 34.0224C64.5381 35.6168 63.2657 36.4139 62.162 36.4139C61.2422 36.4139 60.5983 36.2299 60.2304 35.862C59.8625 35.4941 59.6785 35.0036 59.6785 34.3904C59.6785 34.1144 59.6785 33.8385 59.6785 33.5625C59.7705 33.2559 59.8318 33.0413 59.8625 32.9187C59.188 33.8385 58.4828 34.5896 57.7469 35.1722C56.8578 35.8774 55.9993 36.2299 55.1715 36.2299C54.1904 36.2299 53.4086 35.8774 52.826 35.1722C52.2435 34.4363 51.9522 33.5166 51.9522 32.4128C51.9522 30.2053 52.826 28.1817 54.5737 26.3422C56.4746 24.3799 58.774 23.3988 61.4721 23.3988C62.1466 23.3988 62.6678 23.5368 63.0358 23.8127C63.4037 24.0887 63.6336 24.4872 63.7256 25.0085L70.808 11.1196L74.2573 10.7516L62.6678 33.6085C62.2693 34.3444 62.07 34.9116 62.07 35.3102C62.07 35.6168 62.2233 35.7854 62.5299 35.816C63.327 35.816 64.4155 35.0189 65.7951 33.4246L68.1406 30.2513ZM56.9191 28.8256C55.2328 31.9529 54.3897 33.9151 54.3897 34.7123C54.3897 35.4175 54.6503 35.7701 55.1715 35.7701C55.9993 35.7701 56.9958 35.1875 58.1608 34.0224C58.8967 33.2253 59.7092 32.1829 60.5983 30.8951C61.0582 30.0673 61.5181 29.2242 61.978 28.3657C62.3459 27.6605 62.7445 26.8327 63.1737 25.8823L63.3117 25.4224C63.3117 25.0238 63.1891 24.6865 62.9438 24.4106C62.7292 24.104 62.3766 23.9354 61.886 23.9047C61.1195 23.9047 60.4143 24.1806 59.7705 24.7325C58.9733 25.4377 58.0229 26.8021 56.9191 28.8256Z" fill="url(#paint0_linear_372_353)"/>
<path d="M18.9018 29.7914C21.048 29.7914 23.2708 28.6876 25.5703 26.4801C26.8887 25.2537 28.207 23.5981 29.5254 21.5132L29.8473 21.3293C30.0313 21.3293 30.1539 21.4213 30.2153 21.6052L30.1233 21.7892C29.4488 22.6476 28.6363 24.1346 27.6858 26.2502C26.6127 28.7643 25.555 31.9989 24.5125 35.954C25.6776 35.5861 26.8733 34.6663 28.0997 33.1946L30.3072 30.0673L30.6292 29.9294L30.8131 30.1133L30.6752 30.4812L27.6398 34.5283C26.5667 35.6014 25.509 36.2759 24.4665 36.5519C23.884 38.5754 23.3475 40.1084 22.8569 41.1509C21.9371 43.1744 20.8027 44.7074 19.4537 45.7498C17.6754 47.0682 16.0351 47.9727 14.5328 48.4632C13.0611 48.9538 11.5128 49.1991 9.88779 49.1991C8.3548 49.1991 7.15907 48.9078 6.30059 48.3253C5.44212 47.7427 5.01288 46.8689 5.01288 45.7038C5.01288 44.1095 6.07065 42.5919 8.18617 41.1509C10.6083 39.5259 14.3488 38.1615 19.4077 37.0578C19.7449 35.1875 20.1895 33.6085 20.7414 32.3208C21.2932 31.0024 22.0291 29.9907 22.9489 29.2855C22.2744 29.6534 21.6458 29.9294 21.0633 30.1133C20.4808 30.2973 19.7449 30.3893 18.8558 30.3893C16.7403 30.3893 15.0233 29.914 13.7049 28.9636C12.4172 27.9825 11.5894 26.6794 11.2215 25.0544C8.92201 24.8092 7.08242 23.9813 5.70273 22.571C4.38436 21.0993 3.72517 19.2137 3.72517 16.9143C3.72517 14.0936 4.64496 11.7787 6.48455 9.96981C8.3548 8.16088 11.0222 6.88849 14.4868 6.15266L14.4408 6.33662C11.804 7.25641 9.76516 8.45215 8.32414 9.92382C6.63785 11.7941 5.79471 14.1702 5.79471 17.0522C5.79471 19.0145 6.13197 20.5781 6.80648 21.7432C7.69562 23.2455 9.1213 24.1193 11.0835 24.3646L10.9915 22.8929C10.9915 18.9991 12.5705 15.3813 15.7285 12.0393C19.2237 8.36017 23.5161 6.52058 28.6056 6.52058C29.8014 6.52058 30.7211 6.85783 31.365 7.53235C32.0089 8.17621 32.3308 9.08067 32.3308 10.2457C32.3308 12.0853 31.6563 14.0169 30.3072 16.0405C28.7436 18.3706 26.5667 20.4095 23.7767 22.1571C23.1635 22.4943 22.4583 22.8469 21.6612 23.2149C20.864 23.5828 19.9136 23.9354 18.8098 24.2726C17.7367 24.5792 16.4337 24.8245 14.9007 25.0085C14.9007 28.1971 16.2344 29.7914 18.9018 29.7914ZM6.57653 45.6578C6.57653 47.4974 7.83359 48.4172 10.3477 48.4172C11.0529 48.4172 11.5434 48.3712 11.8194 48.2793C12.126 48.2179 12.4326 48.1413 12.7392 48.0493C13.0458 47.9573 13.3524 47.85 13.659 47.7274C15.4679 46.9609 16.8322 45.4892 17.752 43.3124C18.12 42.4539 18.6105 40.5836 19.2237 37.7016C14.7167 38.8054 11.4821 40.0011 9.51988 41.2888C7.55765 42.5765 6.57653 44.0329 6.57653 45.6578ZM31.6869 10.2457C31.6869 9.32595 31.457 8.57478 30.9971 7.99225C30.5372 7.40971 29.786 7.11844 28.7436 7.11844C25.5856 7.11844 22.4277 9.29529 19.2697 13.649C16.357 17.7267 14.9007 21.3139 14.9007 24.4106C15.6978 24.3493 16.3877 24.2573 16.9702 24.1346C17.5834 24.012 18.2426 23.8434 18.9478 23.6288C20.5114 23.1689 22.0138 22.4943 23.4548 21.6052C26.1222 20.0109 28.1917 18.0947 29.6634 15.8565C31.0124 13.8023 31.6869 11.932 31.6869 10.2457ZM41.675 26.6181C41.675 27.7525 41.4144 28.9329 40.8931 30.1593C40.4332 31.3857 39.912 32.3055 39.3295 32.9187C40.0347 32.7347 40.6479 32.4128 41.1691 31.9529C41.721 31.4623 42.2268 30.8338 42.6867 30.0673L42.9167 29.8374L43.2386 30.0213L43.0087 30.5272C42.3955 31.4777 41.6596 32.2442 40.8012 32.8267C40.2799 33.1946 39.6514 33.4399 38.9156 33.5625L37.3979 35.1262C36.3861 35.954 35.2977 36.3679 34.1327 36.3679C33.0289 36.3679 32.0631 35.908 31.2353 34.9882C30.4381 34.0378 30.0396 32.9034 30.0396 31.585C30.0396 29.7454 30.8061 27.9978 32.3391 26.3422C34.0867 24.4106 36.1409 23.4448 38.5017 23.4448C39.6361 23.4448 40.4486 23.7361 40.9391 24.3186C41.4297 24.8705 41.675 25.637 41.675 26.6181ZM34.3626 29.1935L33.3968 31.677C33.3048 32.0755 33.2282 32.4588 33.1669 32.8267C33.1055 33.1946 33.0749 33.5625 33.0749 33.9305C33.0749 35.1569 33.5195 35.7701 34.4086 35.7701C35.5123 35.7701 36.5394 35.2795 37.4899 34.2984C38.2564 33.4399 38.9922 32.2135 39.6974 30.6192L40.3413 28.6416C40.4639 28.1511 40.5559 27.7525 40.6172 27.4459C40.6785 27.1087 40.7092 26.7407 40.7092 26.3422C40.7092 24.8092 40.142 24.0427 39.0076 24.0427C38.1797 24.0427 37.26 24.6865 36.2482 25.9742C35.9722 26.3728 35.6963 26.8174 35.4204 27.3079C35.1444 27.7678 34.7918 28.3964 34.3626 29.1935ZM52.507 30.1133L52.645 30.3433L52.507 30.8032C51.1273 32.7654 50.2075 34.0071 49.7476 34.5283C48.6132 35.7547 47.4328 36.3679 46.2064 36.3679C45.5625 36.3679 45.026 36.2146 44.5968 35.908C44.2288 35.5708 44.0449 35.0342 44.0449 34.2984C44.0449 33.2253 44.3975 31.8456 45.1026 30.1593C45.4399 29.2702 45.9151 28.2124 46.5283 26.986C47.1415 25.729 47.8927 24.3033 48.7818 22.709L42.8491 30.7112L42.6192 30.9411L42.2973 30.7572L42.5272 30.2973L46.0684 25.3764L50.0235 20.2255L54.6685 11.0736L58.0258 10.8436L48 30.6652L46.8962 33.1486C46.7429 33.5472 46.6203 33.8845 46.5283 34.1604C46.467 34.4363 46.421 34.7429 46.3904 35.0802C46.3904 35.4788 46.5437 35.6934 46.8503 35.7241C47.6474 35.7241 48.6898 34.9729 49.9776 33.4706L52.0931 30.4812L52.507 30.1133ZM68.1406 30.2513L68.3246 30.0213L68.6005 30.1133L68.6925 30.2513L68.5545 30.6192C67.4508 32.2442 66.5923 33.3786 65.9791 34.0224C64.5381 35.6168 63.2657 36.4139 62.162 36.4139C61.2422 36.4139 60.5983 36.2299 60.2304 35.862C59.8625 35.4941 59.6785 35.0036 59.6785 34.3904C59.6785 34.1144 59.6785 33.8385 59.6785 33.5625C59.7705 33.2559 59.8318 33.0413 59.8625 32.9187C59.188 33.8385 58.4828 34.5896 57.7469 35.1722C56.8578 35.8774 55.9993 36.2299 55.1715 36.2299C54.1904 36.2299 53.4086 35.8774 52.826 35.1722C52.2435 34.4363 51.9522 33.5166 51.9522 32.4128C51.9522 30.2053 52.826 28.1817 54.5737 26.3422C56.4746 24.3799 58.774 23.3988 61.4721 23.3988C62.1466 23.3988 62.6678 23.5368 63.0358 23.8127C63.4037 24.0887 63.6336 24.4872 63.7256 25.0085L70.808 11.1196L74.2573 10.7516L62.6678 33.6085C62.2693 34.3444 62.07 34.9116 62.07 35.3102C62.07 35.6168 62.2233 35.7854 62.5299 35.816C63.327 35.816 64.4155 35.0189 65.7951 33.4246L68.1406 30.2513ZM56.9191 28.8256C55.2328 31.9529 54.3897 33.9151 54.3897 34.7123C54.3897 35.4175 54.6503 35.7701 55.1715 35.7701C55.9993 35.7701 56.9958 35.1875 58.1608 34.0224C58.8967 33.2253 59.7092 32.1829 60.5983 30.8951C61.0582 30.0673 61.5181 29.2242 61.978 28.3657C62.3459 27.6605 62.7445 26.8327 63.1737 25.8823L63.3117 25.4224C63.3117 25.0238 63.1891 24.6865 62.9438 24.4106C62.7292 24.104 62.3766 23.9354 61.886 23.9047C61.1195 23.9047 60.4143 24.1806 59.7705 24.7325C58.9733 25.4377 58.0229 26.8021 56.9191 28.8256Z" fill="url(#paint1_radial_372_353)"/>
<path d="M18.9018 29.7914C21.048 29.7914 23.2708 28.6876 25.5703 26.4801C26.8887 25.2537 28.207 23.5981 29.5254 21.5132L29.8473 21.3293C30.0313 21.3293 30.1539 21.4213 30.2153 21.6052L30.1233 21.7892C29.4488 22.6476 28.6363 24.1346 27.6858 26.2502C26.6127 28.7643 25.555 31.9989 24.5125 35.954C25.6776 35.5861 26.8733 34.6663 28.0997 33.1946L30.3072 30.0673L30.6292 29.9294L30.8131 30.1133L30.6752 30.4812L27.6398 34.5283C26.5667 35.6014 25.509 36.2759 24.4665 36.5519C23.884 38.5754 23.3475 40.1084 22.8569 41.1509C21.9371 43.1744 20.8027 44.7074 19.4537 45.7498C17.6754 47.0682 16.0351 47.9727 14.5328 48.4632C13.0611 48.9538 11.5128 49.1991 9.88779 49.1991C8.3548 49.1991 7.15907 48.9078 6.30059 48.3253C5.44212 47.7427 5.01288 46.8689 5.01288 45.7038C5.01288 44.1095 6.07065 42.5919 8.18617 41.1509C10.6083 39.5259 14.3488 38.1615 19.4077 37.0578C19.7449 35.1875 20.1895 33.6085 20.7414 32.3208C21.2932 31.0024 22.0291 29.9907 22.9489 29.2855C22.2744 29.6534 21.6458 29.9294 21.0633 30.1133C20.4808 30.2973 19.7449 30.3893 18.8558 30.3893C16.7403 30.3893 15.0233 29.914 13.7049 28.9636C12.4172 27.9825 11.5894 26.6794 11.2215 25.0544C8.92201 24.8092 7.08242 23.9813 5.70273 22.571C4.38436 21.0993 3.72517 19.2137 3.72517 16.9143C3.72517 14.0936 4.64496 11.7787 6.48455 9.96981C8.3548 8.16088 11.0222 6.88849 14.4868 6.15266L14.4408 6.33662C11.804 7.25641 9.76516 8.45215 8.32414 9.92382C6.63785 11.7941 5.79471 14.1702 5.79471 17.0522C5.79471 19.0145 6.13197 20.5781 6.80648 21.7432C7.69562 23.2455 9.1213 24.1193 11.0835 24.3646L10.9915 22.8929C10.9915 18.9991 12.5705 15.3813 15.7285 12.0393C19.2237 8.36017 23.5161 6.52058 28.6056 6.52058C29.8014 6.52058 30.7211 6.85783 31.365 7.53235C32.0089 8.17621 32.3308 9.08067 32.3308 10.2457C32.3308 12.0853 31.6563 14.0169 30.3072 16.0405C28.7436 18.3706 26.5667 20.4095 23.7767 22.1571C23.1635 22.4943 22.4583 22.8469 21.6612 23.2149C20.864 23.5828 19.9136 23.9354 18.8098 24.2726C17.7367 24.5792 16.4337 24.8245 14.9007 25.0085C14.9007 28.1971 16.2344 29.7914 18.9018 29.7914ZM6.57653 45.6578C6.57653 47.4974 7.83359 48.4172 10.3477 48.4172C11.0529 48.4172 11.5434 48.3712 11.8194 48.2793C12.126 48.2179 12.4326 48.1413 12.7392 48.0493C13.0458 47.9573 13.3524 47.85 13.659 47.7274C15.4679 46.9609 16.8322 45.4892 17.752 43.3124C18.12 42.4539 18.6105 40.5836 19.2237 37.7016C14.7167 38.8054 11.4821 40.0011 9.51988 41.2888C7.55765 42.5765 6.57653 44.0329 6.57653 45.6578ZM31.6869 10.2457C31.6869 9.32595 31.457 8.57478 30.9971 7.99225C30.5372 7.40971 29.786 7.11844 28.7436 7.11844C25.5856 7.11844 22.4277 9.29529 19.2697 13.649C16.357 17.7267 14.9007 21.3139 14.9007 24.4106C15.6978 24.3493 16.3877 24.2573 16.9702 24.1346C17.5834 24.012 18.2426 23.8434 18.9478 23.6288C20.5114 23.1689 22.0138 22.4943 23.4548 21.6052C26.1222 20.0109 28.1917 18.0947 29.6634 15.8565C31.0124 13.8023 31.6869 11.932 31.6869 10.2457ZM41.675 26.6181C41.675 27.7525 41.4144 28.9329 40.8931 30.1593C40.4332 31.3857 39.912 32.3055 39.3295 32.9187C40.0347 32.7347 40.6479 32.4128 41.1691 31.9529C41.721 31.4623 42.2268 30.8338 42.6867 30.0673L42.9167 29.8374L43.2386 30.0213L43.0087 30.5272C42.3955 31.4777 41.6596 32.2442 40.8012 32.8267C40.2799 33.1946 39.6514 33.4399 38.9156 33.5625L37.3979 35.1262C36.3861 35.954 35.2977 36.3679 34.1327 36.3679C33.0289 36.3679 32.0631 35.908 31.2353 34.9882C30.4381 34.0378 30.0396 32.9034 30.0396 31.585C30.0396 29.7454 30.8061 27.9978 32.3391 26.3422C34.0867 24.4106 36.1409 23.4448 38.5017 23.4448C39.6361 23.4448 40.4486 23.7361 40.9391 24.3186C41.4297 24.8705 41.675 25.637 41.675 26.6181ZM34.3626 29.1935L33.3968 31.677C33.3048 32.0755 33.2282 32.4588 33.1669 32.8267C33.1055 33.1946 33.0749 33.5625 33.0749 33.9305C33.0749 35.1569 33.5195 35.7701 34.4086 35.7701C35.5123 35.7701 36.5394 35.2795 37.4899 34.2984C38.2564 33.4399 38.9922 32.2135 39.6974 30.6192L40.3413 28.6416C40.4639 28.1511 40.5559 27.7525 40.6172 27.4459C40.6785 27.1087 40.7092 26.7407 40.7092 26.3422C40.7092 24.8092 40.142 24.0427 39.0076 24.0427C38.1797 24.0427 37.26 24.6865 36.2482 25.9742C35.9722 26.3728 35.6963 26.8174 35.4204 27.3079C35.1444 27.7678 34.7918 28.3964 34.3626 29.1935ZM52.507 30.1133L52.645 30.3433L52.507 30.8032C51.1273 32.7654 50.2075 34.0071 49.7476 34.5283C48.6132 35.7547 47.4328 36.3679 46.2064 36.3679C45.5625 36.3679 45.026 36.2146 44.5968 35.908C44.2288 35.5708 44.0449 35.0342 44.0449 34.2984C44.0449 33.2253 44.3975 31.8456 45.1026 30.1593C45.4399 29.2702 45.9151 28.2124 46.5283 26.986C47.1415 25.729 47.8927 24.3033 48.7818 22.709L42.8491 30.7112L42.6192 30.9411L42.2973 30.7572L42.5272 30.2973L46.0684 25.3764L50.0235 20.2255L54.6685 11.0736L58.0258 10.8436L48 30.6652L46.8962 33.1486C46.7429 33.5472 46.6203 33.8845 46.5283 34.1604C46.467 34.4363 46.421 34.7429 46.3904 35.0802C46.3904 35.4788 46.5437 35.6934 46.8503 35.7241C47.6474 35.7241 48.6898 34.9729 49.9776 33.4706L52.0931 30.4812L52.507 30.1133ZM68.1406 30.2513L68.3246 30.0213L68.6005 30.1133L68.6925 30.2513L68.5545 30.6192C67.4508 32.2442 66.5923 33.3786 65.9791 34.0224C64.5381 35.6168 63.2657 36.4139 62.162 36.4139C61.2422 36.4139 60.5983 36.2299 60.2304 35.862C59.8625 35.4941 59.6785 35.0036 59.6785 34.3904C59.6785 34.1144 59.6785 33.8385 59.6785 33.5625C59.7705 33.2559 59.8318 33.0413 59.8625 32.9187C59.188 33.8385 58.4828 34.5896 57.7469 35.1722C56.8578 35.8774 55.9993 36.2299 55.1715 36.2299C54.1904 36.2299 53.4086 35.8774 52.826 35.1722C52.2435 34.4363 51.9522 33.5166 51.9522 32.4128C51.9522 30.2053 52.826 28.1817 54.5737 26.3422C56.4746 24.3799 58.774 23.3988 61.4721 23.3988C62.1466 23.3988 62.6678 23.5368 63.0358 23.8127C63.4037 24.0887 63.6336 24.4872 63.7256 25.0085L70.808 11.1196L74.2573 10.7516L62.6678 33.6085C62.2693 34.3444 62.07 34.9116 62.07 35.3102C62.07 35.6168 62.2233 35.7854 62.5299 35.816C63.327 35.816 64.4155 35.0189 65.7951 33.4246L68.1406 30.2513ZM56.9191 28.8256C55.2328 31.9529 54.3897 33.9151 54.3897 34.7123C54.3897 35.4175 54.6503 35.7701 55.1715 35.7701C55.9993 35.7701 56.9958 35.1875 58.1608 34.0224C58.8967 33.2253 59.7092 32.1829 60.5983 30.8951C61.0582 30.0673 61.5181 29.2242 61.978 28.3657C62.3459 27.6605 62.7445 26.8327 63.1737 25.8823L63.3117 25.4224C63.3117 25.0238 63.1891 24.6865 62.9438 24.4106C62.7292 24.104 62.3766 23.9354 61.886 23.9047C61.1195 23.9047 60.4143 24.1806 59.7705 24.7325C58.9733 25.4377 58.0229 26.8021 56.9191 28.8256Z" fill="#C29C59" style="mix-blend-mode:color"/>
<path d="M18.9018 29.7914C21.048 29.7914 23.2708 28.6876 25.5703 26.4801C26.8887 25.2537 28.207 23.5981 29.5254 21.5132L29.8473 21.3293C30.0313 21.3293 30.1539 21.4213 30.2153 21.6052L30.1233 21.7892C29.4488 22.6476 28.6363 24.1346 27.6858 26.2502C26.6127 28.7643 25.555 31.9989 24.5125 35.954C25.6776 35.5861 26.8733 34.6663 28.0997 33.1946L30.3072 30.0673L30.6292 29.9294L30.8131 30.1133L30.6752 30.4812L27.6398 34.5283C26.5667 35.6014 25.509 36.2759 24.4665 36.5519C23.884 38.5754 23.3475 40.1084 22.8569 41.1509C21.9371 43.1744 20.8027 44.7074 19.4537 45.7498C17.6754 47.0682 16.0351 47.9727 14.5328 48.4632C13.0611 48.9538 11.5128 49.1991 9.88779 49.1991C8.3548 49.1991 7.15907 48.9078 6.30059 48.3253C5.44212 47.7427 5.01288 46.8689 5.01288 45.7038C5.01288 44.1095 6.07065 42.5919 8.18617 41.1509C10.6083 39.5259 14.3488 38.1615 19.4077 37.0578C19.7449 35.1875 20.1895 33.6085 20.7414 32.3208C21.2932 31.0024 22.0291 29.9907 22.9489 29.2855C22.2744 29.6534 21.6458 29.9294 21.0633 30.1133C20.4808 30.2973 19.7449 30.3893 18.8558 30.3893C16.7403 30.3893 15.0233 29.914 13.7049 28.9636C12.4172 27.9825 11.5894 26.6794 11.2215 25.0544C8.92201 24.8092 7.08242 23.9813 5.70273 22.571C4.38436 21.0993 3.72517 19.2137 3.72517 16.9143C3.72517 14.0936 4.64496 11.7787 6.48455 9.96981C8.3548 8.16088 11.0222 6.88849 14.4868 6.15266L14.4408 6.33662C11.804 7.25641 9.76516 8.45215 8.32414 9.92382C6.63785 11.7941 5.79471 14.1702 5.79471 17.0522C5.79471 19.0145 6.13197 20.5781 6.80648 21.7432C7.69562 23.2455 9.1213 24.1193 11.0835 24.3646L10.9915 22.8929C10.9915 18.9991 12.5705 15.3813 15.7285 12.0393C19.2237 8.36017 23.5161 6.52058 28.6056 6.52058C29.8014 6.52058 30.7211 6.85783 31.365 7.53235C32.0089 8.17621 32.3308 9.08067 32.3308 10.2457C32.3308 12.0853 31.6563 14.0169 30.3072 16.0405C28.7436 18.3706 26.5667 20.4095 23.7767 22.1571C23.1635 22.4943 22.4583 22.8469 21.6612 23.2149C20.864 23.5828 19.9136 23.9354 18.8098 24.2726C17.7367 24.5792 16.4337 24.8245 14.9007 25.0085C14.9007 28.1971 16.2344 29.7914 18.9018 29.7914ZM6.57653 45.6578C6.57653 47.4974 7.83359 48.4172 10.3477 48.4172C11.0529 48.4172 11.5434 48.3712 11.8194 48.2793C12.126 48.2179 12.4326 48.1413 12.7392 48.0493C13.0458 47.9573 13.3524 47.85 13.659 47.7274C15.4679 46.9609 16.8322 45.4892 17.752 43.3124C18.12 42.4539 18.6105 40.5836 19.2237 37.7016C14.7167 38.8054 11.4821 40.0011 9.51988 41.2888C7.55765 42.5765 6.57653 44.0329 6.57653 45.6578ZM31.6869 10.2457C31.6869 9.32595 31.457 8.57478 30.9971 7.99225C30.5372 7.40971 29.786 7.11844 28.7436 7.11844C25.5856 7.11844 22.4277 9.29529 19.2697 13.649C16.357 17.7267 14.9007 21.3139 14.9007 24.4106C15.6978 24.3493 16.3877 24.2573 16.9702 24.1346C17.5834 24.012 18.2426 23.8434 18.9478 23.6288C20.5114 23.1689 22.0138 22.4943 23.4548 21.6052C26.1222 20.0109 28.1917 18.0947 29.6634 15.8565C31.0124 13.8023 31.6869 11.932 31.6869 10.2457ZM41.675 26.6181C41.675 27.7525 41.4144 28.9329 40.8931 30.1593C40.4332 31.3857 39.912 32.3055 39.3295 32.9187C40.0347 32.7347 40.6479 32.4128 41.1691 31.9529C41.721 31.4623 42.2268 30.8338 42.6867 30.0673L42.9167 29.8374L43.2386 30.0213L43.0087 30.5272C42.3955 31.4777 41.6596 32.2442 40.8012 32.8267C40.2799 33.1946 39.6514 33.4399 38.9156 33.5625L37.3979 35.1262C36.3861 35.954 35.2977 36.3679 34.1327 36.3679C33.0289 36.3679 32.0631 35.908 31.2353 34.9882C30.4381 34.0378 30.0396 32.9034 30.0396 31.585C30.0396 29.7454 30.8061 27.9978 32.3391 26.3422C34.0867 24.4106 36.1409 23.4448 38.5017 23.4448C39.6361 23.4448 40.4486 23.7361 40.9391 24.3186C41.4297 24.8705 41.675 25.637 41.675 26.6181ZM34.3626 29.1935L33.3968 31.677C33.3048 32.0755 33.2282 32.4588 33.1669 32.8267C33.1055 33.1946 33.0749 33.5625 33.0749 33.9305C33.0749 35.1569 33.5195 35.7701 34.4086 35.7701C35.5123 35.7701 36.5394 35.2795 37.4899 34.2984C38.2564 33.4399 38.9922 32.2135 39.6974 30.6192L40.3413 28.6416C40.4639 28.1511 40.5559 27.7525 40.6172 27.4459C40.6785 27.1087 40.7092 26.7407 40.7092 26.3422C40.7092 24.8092 40.142 24.0427 39.0076 24.0427C38.1797 24.0427 37.26 24.6865 36.2482 25.9742C35.9722 26.3728 35.6963 26.8174 35.4204 27.3079C35.1444 27.7678 34.7918 28.3964 34.3626 29.1935ZM52.507 30.1133L52.645 30.3433L52.507 30.8032C51.1273 32.7654 50.2075 34.0071 49.7476 34.5283C48.6132 35.7547 47.4328 36.3679 46.2064 36.3679C45.5625 36.3679 45.026 36.2146 44.5968 35.908C44.2288 35.5708 44.0449 35.0342 44.0449 34.2984C44.0449 33.2253 44.3975 31.8456 45.1026 30.1593C45.4399 29.2702 45.9151 28.2124 46.5283 26.986C47.1415 25.729 47.8927 24.3033 48.7818 22.709L42.8491 30.7112L42.6192 30.9411L42.2973 30.7572L42.5272 30.2973L46.0684 25.3764L50.0235 20.2255L54.6685 11.0736L58.0258 10.8436L48 30.6652L46.8962 33.1486C46.7429 33.5472 46.6203 33.8845 46.5283 34.1604C46.467 34.4363 46.421 34.7429 46.3904 35.0802C46.3904 35.4788 46.5437 35.6934 46.8503 35.7241C47.6474 35.7241 48.6898 34.9729 49.9776 33.4706L52.0931 30.4812L52.507 30.1133ZM68.1406 30.2513L68.3246 30.0213L68.6005 30.1133L68.6925 30.2513L68.5545 30.6192C67.4508 32.2442 66.5923 33.3786 65.9791 34.0224C64.5381 35.6168 63.2657 36.4139 62.162 36.4139C61.2422 36.4139 60.5983 36.2299 60.2304 35.862C59.8625 35.4941 59.6785 35.0036 59.6785 34.3904C59.6785 34.1144 59.6785 33.8385 59.6785 33.5625C59.7705 33.2559 59.8318 33.0413 59.8625 32.9187C59.188 33.8385 58.4828 34.5896 57.7469 35.1722C56.8578 35.8774 55.9993 36.2299 55.1715 36.2299C54.1904 36.2299 53.4086 35.8774 52.826 35.1722C52.2435 34.4363 51.9522 33.5166 51.9522 32.4128C51.9522 30.2053 52.826 28.1817 54.5737 26.3422C56.4746 24.3799 58.774 23.3988 61.4721 23.3988C62.1466 23.3988 62.6678 23.5368 63.0358 23.8127C63.4037 24.0887 63.6336 24.4872 63.7256 25.0085L70.808 11.1196L74.2573 10.7516L62.6678 33.6085C62.2693 34.3444 62.07 34.9116 62.07 35.3102C62.07 35.6168 62.2233 35.7854 62.5299 35.816C63.327 35.816 64.4155 35.0189 65.7951 33.4246L68.1406 30.2513ZM56.9191 28.8256C55.2328 31.9529 54.3897 33.9151 54.3897 34.7123C54.3897 35.4175 54.6503 35.7701 55.1715 35.7701C55.9993 35.7701 56.9958 35.1875 58.1608 34.0224C58.8967 33.2253 59.7092 32.1829 60.5983 30.8951C61.0582 30.0673 61.5181 29.2242 61.978 28.3657C62.3459 27.6605 62.7445 26.8327 63.1737 25.8823L63.3117 25.4224C63.3117 25.0238 63.1891 24.6865 62.9438 24.4106C62.7292 24.104 62.3766 23.9354 61.886 23.9047C61.1195 23.9047 60.4143 24.1806 59.7705 24.7325C58.9733 25.4377 58.0229 26.8021 56.9191 28.8256Z" fill="white" fill-opacity="0.05"/>
<path fill-rule="evenodd" clip-rule="evenodd" d="M84.459 33.3709C81.7249 31.8976 79.5577 29.8488 77.9794 27.2352C76.392 24.6067 75.6094 21.6418 75.6094 18.3742C75.6094 15.1066 76.392 12.1418 77.9794 9.51327C79.5587 6.89813 81.7283 4.862 84.4664 3.41736C87.2358 1.94239 90.3333 1.2168 93.7313 1.2168C96.687 1.2168 99.3899 1.73946 101.819 2.80945C104.248 3.87911 106.281 5.42928 107.9 7.45595L108.614 8.34954L101.288 14.9608L100.476 13.9831C98.6912 11.8367 96.6079 10.832 94.1704 10.832C92.6888 10.832 91.4055 11.1537 90.2896 11.7709C89.2106 12.3837 88.3626 13.2495 87.7368 14.3963C87.1439 15.5072 86.8289 16.8218 86.8289 18.3742C86.8289 19.9216 87.1419 21.2522 87.7369 22.3957C88.3602 23.5094 89.2068 24.3627 90.2896 24.9775C91.4055 25.5947 92.6888 25.9165 94.1704 25.9165C96.6079 25.9165 98.6912 24.9118 100.476 22.7654L101.288 21.7877L108.614 28.3989L107.9 29.2925C106.281 31.3192 104.248 32.8693 101.819 33.939C99.3899 35.009 96.687 35.5317 93.7313 35.5317C90.3366 35.5317 87.2418 34.8221 84.4737 33.3787L84.459 33.3709ZM89.6923 26.0381C88.4045 25.3082 87.3947 24.2864 86.663 22.9726C85.9606 21.6296 85.6094 20.0968 85.6094 18.3742C85.6094 16.6517 85.9606 15.1335 86.663 13.8197C87.3947 12.4767 88.4045 11.4402 89.6923 10.7103C91.0094 9.98042 92.5021 9.61547 94.1704 9.61547C96.6688 9.61547 98.8385 10.5425 100.68 12.3965C100.931 12.6493 101.175 12.9193 101.414 13.2066L106.946 8.21407C105.453 6.34554 103.58 4.91494 101.326 3.92228C99.0728 2.92962 96.5411 2.43329 93.7313 2.43329C90.5118 2.43329 87.6143 3.11939 85.0386 4.4916C82.4923 5.83461 80.4874 7.71774 79.024 10.141C77.5606 12.5643 76.8289 15.3087 76.8289 18.3742C76.8289 21.4398 77.5606 24.1842 79.024 26.6075C80.4874 29.0307 82.4923 30.9284 85.0386 32.3006C87.6143 33.6437 90.5118 34.3152 93.7313 34.3152C96.5411 34.3152 99.0728 33.8188 101.326 32.8262C103.58 31.8335 105.453 30.4029 106.946 28.5344L101.414 23.5419C101.175 23.8291 100.931 24.0991 100.68 24.3519C98.8385 26.206 96.6688 27.133 94.1704 27.133C92.5021 27.133 91.0094 26.768 89.6923 26.0381ZM110.301 11.1385V1.82991H140.267V11.1385H130.872V34.9185H119.74V11.1385H110.301ZM120.96 9.92203V33.702H129.652V9.92203H139.047V3.0464H111.521V9.92203H120.96ZM167.179 15.2746V24.408H153.613V34.9185H142.481V1.82991H169.023V10.9633H153.613V15.2746H167.179ZM152.393 9.74685H167.803V3.0464H143.701V33.702H152.393V23.1915H165.959V16.4911H152.393V9.74685Z" fill="url(#paint2_linear_372_353)"/>
<path fill-rule="evenodd" clip-rule="evenodd" d="M84.459 33.3709C81.7249 31.8976 79.5577 29.8488 77.9794 27.2352C76.392 24.6067 75.6094 21.6418 75.6094 18.3742C75.6094 15.1066 76.392 12.1418 77.9794 9.51327C79.5587 6.89813 81.7283 4.862 84.4664 3.41736C87.2358 1.94239 90.3333 1.2168 93.7313 1.2168C96.687 1.2168 99.3899 1.73946 101.819 2.80945C104.248 3.87911 106.281 5.42928 107.9 7.45595L108.614 8.34954L101.288 14.9608L100.476 13.9831C98.6912 11.8367 96.6079 10.832 94.1704 10.832C92.6888 10.832 91.4055 11.1537 90.2896 11.7709C89.2106 12.3837 88.3626 13.2495 87.7368 14.3963C87.1439 15.5072 86.8289 16.8218 86.8289 18.3742C86.8289 19.9216 87.1419 21.2522 87.7369 22.3957C88.3602 23.5094 89.2068 24.3627 90.2896 24.9775C91.4055 25.5947 92.6888 25.9165 94.1704 25.9165C96.6079 25.9165 98.6912 24.9118 100.476 22.7654L101.288 21.7877L108.614 28.3989L107.9 29.2925C106.281 31.3192 104.248 32.8693 101.819 33.939C99.3899 35.009 96.687 35.5317 93.7313 35.5317C90.3366 35.5317 87.2418 34.8221 84.4737 33.3787L84.459 33.3709ZM89.6923 26.0381C88.4045 25.3082 87.3947 24.2864 86.663 22.9726C85.9606 21.6296 85.6094 20.0968 85.6094 18.3742C85.6094 16.6517 85.9606 15.1335 86.663 13.8197C87.3947 12.4767 88.4045 11.4402 89.6923 10.7103C91.0094 9.98042 92.5021 9.61547 94.1704 9.61547C96.6688 9.61547 98.8385 10.5425 100.68 12.3965C100.931 12.6493 101.175 12.9193 101.414 13.2066L106.946 8.21407C105.453 6.34554 103.58 4.91494 101.326 3.92228C99.0728 2.92962 96.5411 2.43329 93.7313 2.43329C90.5118 2.43329 87.6143 3.11939 85.0386 4.4916C82.4923 5.83461 80.4874 7.71774 79.024 10.141C77.5606 12.5643 76.8289 15.3087 76.8289 18.3742C76.8289 21.4398 77.5606 24.1842 79.024 26.6075C80.4874 29.0307 82.4923 30.9284 85.0386 32.3006C87.6143 33.6437 90.5118 34.3152 93.7313 34.3152C96.5411 34.3152 99.0728 33.8188 101.326 32.8262C103.58 31.8335 105.453 30.4029 106.946 28.5344L101.414 23.5419C101.175 23.8291 100.931 24.0991 100.68 24.3519C98.8385 26.206 96.6688 27.133 94.1704 27.133C92.5021 27.133 91.0094 26.768 89.6923 26.0381ZM110.301 11.1385V1.82991H140.267V11.1385H130.872V34.9185H119.74V11.1385H110.301ZM120.96 9.92203V33.702H129.652V9.92203H139.047V3.0464H111.521V9.92203H120.96ZM167.179 15.2746V24.408H153.613V34.9185H142.481V1.82991H169.023V10.9633H153.613V15.2746H167.179ZM152.393 9.74685H167.803V3.0464H143.701V33.702H152.393V23.1915H165.959V16.4911H152.393V9.74685Z" fill="url(#paint3_radial_372_353)"/>
<path fill-rule="evenodd" clip-rule="evenodd" d="M84.459 33.3709C81.7249 31.8976 79.5577 29.8488 77.9794 27.2352C76.392 24.6067 75.6094 21.6418 75.6094 18.3742C75.6094 15.1066 76.392 12.1418 77.9794 9.51327C79.5587 6.89813 81.7283 4.862 84.4664 3.41736C87.2358 1.94239 90.3333 1.2168 93.7313 1.2168C96.687 1.2168 99.3899 1.73946 101.819 2.80945C104.248 3.87911 106.281 5.42928 107.9 7.45595L108.614 8.34954L101.288 14.9608L100.476 13.9831C98.6912 11.8367 96.6079 10.832 94.1704 10.832C92.6888 10.832 91.4055 11.1537 90.2896 11.7709C89.2106 12.3837 88.3626 13.2495 87.7368 14.3963C87.1439 15.5072 86.8289 16.8218 86.8289 18.3742C86.8289 19.9216 87.1419 21.2522 87.7369 22.3957C88.3602 23.5094 89.2068 24.3627 90.2896 24.9775C91.4055 25.5947 92.6888 25.9165 94.1704 25.9165C96.6079 25.9165 98.6912 24.9118 100.476 22.7654L101.288 21.7877L108.614 28.3989L107.9 29.2925C106.281 31.3192 104.248 32.8693 101.819 33.939C99.3899 35.009 96.687 35.5317 93.7313 35.5317C90.3366 35.5317 87.2418 34.8221 84.4737 33.3787L84.459 33.3709ZM89.6923 26.0381C88.4045 25.3082 87.3947 24.2864 86.663 22.9726C85.9606 21.6296 85.6094 20.0968 85.6094 18.3742C85.6094 16.6517 85.9606 15.1335 86.663 13.8197C87.3947 12.4767 88.4045 11.4402 89.6923 10.7103C91.0094 9.98042 92.5021 9.61547 94.1704 9.61547C96.6688 9.61547 98.8385 10.5425 100.68 12.3965C100.931 12.6493 101.175 12.9193 101.414 13.2066L106.946 8.21407C105.453 6.34554 103.58 4.91494 101.326 3.92228C99.0728 2.92962 96.5411 2.43329 93.7313 2.43329C90.5118 2.43329 87.6143 3.11939 85.0386 4.4916C82.4923 5.83461 80.4874 7.71774 79.024 10.141C77.5606 12.5643 76.8289 15.3087 76.8289 18.3742C76.8289 21.4398 77.5606 24.1842 79.024 26.6075C80.4874 29.0307 82.4923 30.9284 85.0386 32.3006C87.6143 33.6437 90.5118 34.3152 93.7313 34.3152C96.5411 34.3152 99.0728 33.8188 101.326 32.8262C103.58 31.8335 105.453 30.4029 106.946 28.5344L101.414 23.5419C101.175 23.8291 100.931 24.0991 100.68 24.3519C98.8385 26.206 96.6688 27.133 94.1704 27.133C92.5021 27.133 91.0094 26.768 89.6923 26.0381ZM110.301 11.1385V1.82991H140.267V11.1385H130.872V34.9185H119.74V11.1385H110.301ZM120.96 9.92203V33.702H129.652V9.92203H139.047V3.0464H111.521V9.92203H120.96ZM167.179 15.2746V24.408H153.613V34.9185H142.481V1.82991H169.023V10.9633H153.613V15.2746H167.179ZM152.393 9.74685H167.803V3.0464H143.701V33.702H152.393V23.1915H165.959V16.4911H152.393V9.74685Z" fill="#C29C59" style="mix-blend-mode:color"/>
<path fill-rule="evenodd" clip-rule="evenodd" d="M84.459 33.3709C81.7249 31.8976 79.5577 29.8488 77.9794 27.2352C76.392 24.6067 75.6094 21.6418 75.6094 18.3742C75.6094 15.1066 76.392 12.1418 77.9794 9.51327C79.5587 6.89813 81.7283 4.862 84.4664 3.41736C87.2358 1.94239 90.3333 1.2168 93.7313 1.2168C96.687 1.2168 99.3899 1.73946 101.819 2.80945C104.248 3.87911 106.281 5.42928 107.9 7.45595L108.614 8.34954L101.288 14.9608L100.476 13.9831C98.6912 11.8367 96.6079 10.832 94.1704 10.832C92.6888 10.832 91.4055 11.1537 90.2896 11.7709C89.2106 12.3837 88.3626 13.2495 87.7368 14.3963C87.1439 15.5072 86.8289 16.8218 86.8289 18.3742C86.8289 19.9216 87.1419 21.2522 87.7369 22.3957C88.3602 23.5094 89.2068 24.3627 90.2896 24.9775C91.4055 25.5947 92.6888 25.9165 94.1704 25.9165C96.6079 25.9165 98.6912 24.9118 100.476 22.7654L101.288 21.7877L108.614 28.3989L107.9 29.2925C106.281 31.3192 104.248 32.8693 101.819 33.939C99.3899 35.009 96.687 35.5317 93.7313 35.5317C90.3366 35.5317 87.2418 34.8221 84.4737 33.3787L84.459 33.3709ZM89.6923 26.0381C88.4045 25.3082 87.3947 24.2864 86.663 22.9726C85.9606 21.6296 85.6094 20.0968 85.6094 18.3742C85.6094 16.6517 85.9606 15.1335 86.663 13.8197C87.3947 12.4767 88.4045 11.4402 89.6923 10.7103C91.0094 9.98042 92.5021 9.61547 94.1704 9.61547C96.6688 9.61547 98.8385 10.5425 100.68 12.3965C100.931 12.6493 101.175 12.9193 101.414 13.2066L106.946 8.21407C105.453 6.34554 103.58 4.91494 101.326 3.92228C99.0728 2.92962 96.5411 2.43329 93.7313 2.43329C90.5118 2.43329 87.6143 3.11939 85.0386 4.4916C82.4923 5.83461 80.4874 7.71774 79.024 10.141C77.5606 12.5643 76.8289 15.3087 76.8289 18.3742C76.8289 21.4398 77.5606 24.1842 79.024 26.6075C80.4874 29.0307 82.4923 30.9284 85.0386 32.3006C87.6143 33.6437 90.5118 34.3152 93.7313 34.3152C96.5411 34.3152 99.0728 33.8188 101.326 32.8262C103.58 31.8335 105.453 30.4029 106.946 28.5344L101.414 23.5419C101.175 23.8291 100.931 24.0991 100.68 24.3519C98.8385 26.206 96.6688 27.133 94.1704 27.133C92.5021 27.133 91.0094 26.768 89.6923 26.0381ZM110.301 11.1385V1.82991H140.267V11.1385H130.872V34.9185H119.74V11.1385H110.301ZM120.96 9.92203V33.702H129.652V9.92203H139.047V3.0464H111.521V9.92203H120.96ZM167.179 15.2746V24.408H153.613V34.9185H142.481V1.82991H169.023V10.9633H153.613V15.2746H167.179ZM152.393 9.74685H167.803V3.0464H143.701V33.702H152.393V23.1915H165.959V16.4911H152.393V9.74685Z" fill="white" fill-opacity="0.05"/>
<defs>
<linearGradient id="paint0_linear_372_353" x1="1.16437" y1="29.9822" x2="69.0764" y2="14.0528" gradientUnits="userSpaceOnUse">
<stop stop-color="#576265"/>
<stop offset="0.117396" stop-color="#9EA1A1"/>
<stop offset="0.512757" stop-color="#848B8A"/>
<stop offset="0.550137" stop-color="#5E6364"/>
<stop offset="0.698889" stop-color="#4F4F4F"/>
<stop offset="0.753082" stop-color="#747474"/>
<stop offset="1" stop-color="#525252"/>
</linearGradient>
<radialGradient id="paint1_radial_372_353" cx="0" cy="0" r="1" gradientUnits="userSpaceOnUse" gradientTransform="translate(18.0263 -2.19644) rotate(63.4218) scale(36.8196 16.9925)">
<stop stop-color="white"/>
<stop offset="1" stop-color="white" stop-opacity="0"/>
</radialGradient>
<linearGradient id="paint2_linear_372_353" x1="77.1857" y1="21.7935" x2="157.08" y2="-15.1736" gradientUnits="userSpaceOnUse">
<stop stop-color="#576265"/>
<stop offset="0.117396" stop-color="#9EA1A1"/>
<stop offset="0.512757" stop-color="#848B8A"/>
<stop offset="0.550137" stop-color="#5E6364"/>
<stop offset="0.698889" stop-color="#4F4F4F"/>
<stop offset="0.753082" stop-color="#747474"/>
<stop offset="1" stop-color="#525252"/>
</linearGradient>
<radialGradient id="paint3_radial_372_353" cx="0" cy="0" r="1" gradientUnits="userSpaceOnUse" gradientTransform="translate(100.014 -0.290611) rotate(45.3783) scale(31.7507 18.3086)">
<stop stop-color="white"/>
<stop offset="1" stop-color="white" stop-opacity="0"/>
</radialGradient>
</defs>
</svg>
